<svg width="32" height="32" viewBox="0 0 32 32" xmlns="http://www.w3.org/2000/svg"><title>4px</title><g fill="none" fill-rule="evenodd"><path d="M32 29.5a2.5 2.5 0 0 1-2.5 2.5h-27A2.5 2.5 0 0 1 0 29.5v-27A2.5 2.5 0 0 1 2.5 0h27A2.5 2.5 0 0 1 32 2.5v27z" fill="#FFF"/><g fill="#F3670D"><path d="M9.421 10L1 14.386 5.954 22l-1.327-6.733zM5.48 10.28l.248 1.375.528-.263z"/><path d="M6.857 13.115l-.6.703H7.85l-.44-.703zM6.256 14.06l.087.706h2.084l-.423-.707zM6.41 15.016l.13.66h2.487l-.419-.66zM6.63 15.95l.115.64h2.88l-.393-.64zM6.782 16.886l-1.374 1.067.32 1.439 4.683-1.584-.568-.922zM3.758 19.19L1.9 20.627l2.34-.72z"/></g><path d="M18.362 11.23v3.42h.556v1.17h-.619v.84h-1.416v-.84H13.35v-1.407l3.403-3.183h1.609zm-1.458 1.42l-1.973 1.982h1.973V12.65zM19.65 16.66v-5.238c.019-.128.127-.192.326-.192h3.504c.895-.045 1.343.27 1.343.949v1.998c.047.712-.253 1.069-.9 1.069h-2.386v-1.2h1.766c.303-.019.455-.154.455-.405v-.692c.002-.332-.15-.497-.455-.497h-2.186c-.07.031-.106.097-.106.198v4.01H19.65zM30.603 15.936l.555.856h-1.676l-.592-.856h1.713zm-3.357 0l-.574.856h-1.709l.563-.856h1.72zm2.526-1.283l.65 1.003h-1.725l-.64-.926-.623.926H25.71l.66-1.003h3.402zm-.329-1.188l-.219.343.378.582h-3.059l.385-.582-.226-.343h2.741zm.812-1.267l-.64 1h-3.089l-.656-1h1.642l.545.808.543-.808h1.655zm-3.445-1.043l.543.807h-1.638l-.529-.807h1.624zm4.115 0l-.518.807H28.76l.545-.807h1.62zM13.578 17.869l.638.71.532-.355-.585-.645zM13.42 18.77v.459h.619v1.04l-.62.272.31.563.662-.484c.22.323.544.484.97.484h2.584l.164-.484h-2.56c-.598-.076-.897-.222-.897-.437V18.77H13.42z" fill="#005ADC"/><path d="M16.973 17.442l.483.203-.258.305h.555v1.03H16.63v.236h1.297v.796c-.155.308-.433.462-.832.462l-.223-.424h.327c.113-.019.17-.081.17-.188v-.251h-.739v1.004h-.549v-.678c-.509.34-.853.53-1.033.575l-.389-.415c.54-.17.87-.321.992-.455l-.78.003.09-1.03h1.12v-.254h-1.21v-.41h.64l-.272-.237.461-.272.435.38-.134.128h.495l.478-.508zm-.89 1.587h-.561v.223h.561v-.223z" fill="#005ADC"/><path fill="#FFF" d="M16.632 18.413v.166h.535v-.166z"/><path d="M24.35 17.795v3.309h-.637v-.08H20.87v.08h-.625v-3.31h4.105zm-1.28 1.71c0 .081.041.134.124.158h.56l-.127.457h-.678c-.19 0-.33-.118-.42-.353v-1.479h-.401v.094l-.006.712c0 .537-.31.92-.93 1.148l-.31-.454c.531-.169.739-.669.623-1.5h-.623v2.327h2.873v-2.327h-.685zM28.583 18.09l-.387-.428.572-.242.54.539-.137.13H31v.505h-2.232v.399h1.676v1.418c-.095.408-.377.639-.846.693-.468.053-.629.08-.481.08l-.29-.517h.547c.286-.035.43-.154.43-.357v-.825h-1.142c-.198.802-.757 1.341-1.677 1.619l-.479-.466c.937-.207 1.465-.684 1.584-1.43v-.597l-1.512-.017v-.505h2.005z" fill="#005ADC"/></g></svg>